<svg id="Capa_1" data-name="Capa 1" xmlns="http://www.w3.org/2000/svg" viewBox="0 0 68.73 72.72"><defs><style>.cls-1{fill:#212121;}</style></defs><title>iconos_triceratops</title><path class="cls-1" d="M8.63,25.18C35,26.73,53.31,54.44,53.31,54.44l1.51-2.63S37,25.3,8.63,25.18Z"/><path class="cls-1" d="M23.65,25.78a6.59,6.59,0,0,1,.4-5.3,6.67,6.67,0,0,1,3.63,3.89,6.58,6.58,0,0,1-.4,5.3A6.62,6.62,0,0,1,23.65,25.78Z"/><path class="cls-1" d="M12.62,28.13a9.56,9.56,0,0,1-6-4.73A9.56,9.56,0,0,1,20.17,27,9.55,9.55,0,0,1,12.62,28.13Z"/><path class="cls-1" d="M41.36,34.49a10.31,10.31,0,0,1,3-7.73A10.32,10.32,0,0,1,45,42,10.34,10.34,0,0,1,41.36,34.49Z"/><path class="cls-1" d="M32.94,29.31a8.39,8.39,0,0,1,1.63-6.56A8.42,8.42,0,0,1,36.68,35,8.48,8.48,0,0,1,32.94,29.31Z"/><path class="cls-1" d="M41.36,34.43a10.32,10.32,0,0,1,3-7.74A10.34,10.34,0,0,1,45,41.9,10.37,10.37,0,0,1,41.36,34.43Z"/><path class="cls-1" d="M22,29.54a6.71,6.71,0,0,1,5.32.35,6.67,6.67,0,0,1-9.2,3.31A6.68,6.68,0,0,1,22,29.54Z"/><path class="cls-1" d="M29.82,33.81a8.48,8.48,0,0,1,6.65,1.36A8.5,8.5,0,0,1,24.3,37.76,8.47,8.47,0,0,1,29.82,33.81Z"/><path class="cls-1" d="M36.94,40.14A10.41,10.41,0,0,1,45,42.26,10.42,10.42,0,0,1,29.91,44.6,10.4,10.4,0,0,1,36.94,40.14Z"/></svg>