<svg id="Capa_1" data-name="Capa 1" xmlns="http://www.w3.org/2000/svg" viewBox="0 0 68.73 72.72"><defs><style>.cls-1{fill:#212121;fill-rule:evenodd;}.cls-2{fill:#606060;}</style></defs><title>iconos_triceratops</title><path class="cls-1" d="M57.52,34.19c-6.28-49.8-86.9-15.1-24.27,34.57,0,0,24.26-21.23,24.27-34.57"/><path class="cls-2" d="M64.94,35.05A24.28,24.28,0,0,0,56.1,32a2.19,2.19,0,0,0-1.18-.19.82.82,0,0,1,.27.38,1,1,0,0,0-.82-.49c-1.06-.18-.74-.85-1.07-1a1.37,1.37,0,0,0-.14-.68.36.36,0,0,0-.09-.34,1.08,1.08,0,0,0-.16-.57c0-.36-.09-.44-.09-.44a.73.73,0,0,0-.11-.59c-.31-1.39.45-3.35-.32-4-.47.37-.7.89-.26,1,0,0-.25,0-.3-.16a7,7,0,0,0-1,2.44.91.91,0,0,0-.2.5s.36.17.22.71c.17-.5-.47-1-.66-.34a5.16,5.16,0,0,1-.6,1.33c-.41,0-.44,1-.82,1.81a.84.84,0,0,0-.36.8.87.87,0,0,0-.87-.36c.24.82-.33,1.78.19,2.56-.73-1,.39-2.54-.83-3.3a3.38,3.38,0,0,1,.21,2.24c0,.1.26-2.2-.71-2.73a.42.42,0,0,0-.53-.24.51.51,0,0,0-.48-.51,5.71,5.71,0,0,1,.34,1.46s-.21-1.66-.95-2.2c0,0-.05-.3-.32-.27,0,0-.09-.34-.33-.33,0,0-.37-.41-.63-.41,0,0-.31-.36-.61-.36a.54.54,0,0,0-.45-.19.36.36,0,0,0-.33-.14s-.25-.25-.44-.2a.77.77,0,0,0-.49-.26.52.52,0,0,0-.46-.29s-.25-.32-.49-.28c0,0-.52-.5-.95-.47,0,0-.15-.25-.34-.21a.49.49,0,0,0-.41-.19,1.54,1.54,0,0,0-1-.5,8.43,8.43,0,0,0-4.45-.8,1,1,0,0,0-.55.06,1.63,1.63,0,0,0-.83.1.87.87,0,0,0-.7.1,1.85,1.85,0,0,0-1.31.34A1.1,1.1,0,0,0,29,25,2.1,2.1,0,0,0,28,25.4a2.24,2.24,0,0,0-1.29.64,2.38,2.38,0,0,0-1.15.87s-1,.45-1.18,1.15a1.56,1.56,0,0,0-.74.69,2.37,2.37,0,0,0-1,.92s-.64.3-.74.66a1.16,1.16,0,0,0-.66.63,1.44,1.44,0,0,0-.77.58,1.06,1.06,0,0,0-.57.47,30.64,30.64,0,0,1-4.37,2.52,1,1,0,0,0-.77.18,2,2,0,0,0-1.22.26,2.9,2.9,0,0,0-1.18.1s-.8-.16-1,0a.56.56,0,0,0-.57-.11.91.91,0,0,0-.87-.2.62.62,0,0,0-.59-.16,1.36,1.36,0,0,0-.87-.39C8.25,34,7,33.69,6.68,33.27,5.39,32.91,3.31,30.46,2,31.2a30.18,30.18,0,0,1,3.47,3.59s.08.27.29.28c0,0,.16.36.46.41a1.2,1.2,0,0,0,.63.5.83.83,0,0,0,.48.35s.22.38.5.36c0,0,.16.24.35.22a.81.81,0,0,0,.55.34.67.67,0,0,0,.56.25.7.7,0,0,0,.69.31,1,1,0,0,0,.91.3,1.44,1.44,0,0,0,1.06.44,1.81,1.81,0,0,0,1.34.33c1.79.59,4.51.22,7-.44a4,4,0,0,0,1.61-.38s2.41-.25,3.06-1.14a1,1,0,0,1-.62.61,1.4,1.4,0,0,0,.5.38,1.78,1.78,0,0,0,.52.73,2.16,2.16,0,0,0-.36.52.7.7,0,0,0-.32.46,1.46,1.46,0,0,0-.44.64s-.19.12-.17.29a.52.52,0,0,0-.28.32.75.75,0,0,0-.28.33,1.22,1.22,0,0,0-.56.48s-.72.42-.57.65c0,0-.26.26-.09.38,0,0-.19.23,0,.4a.63.63,0,0,0-.08.47A.5.5,0,0,0,22,44s-.29.14-.16.36a.42.42,0,0,0-.12.41s-.46.23-.42.52C20,47,23.43,48.36,24.78,47.83a.85.85,0,0,0,.47-.09c.36.25.9,0,.29-.59.13-.17-.64-.88-1.12-.83a.88.88,0,0,1,.35,0,.27.27,0,0,0-.09-.29.28.28,0,0,0,0-.33.65.65,0,0,0,0-.57.22.22,0,0,0,.14-.28s.25-.19.22-.39c0,0,.3-.06.31-.27a.38.38,0,0,0,.25-.3.67.67,0,0,0,.28-.5.31.31,0,0,0,.18-.3s.23-.06.17-.4a.32.32,0,0,1,0,.25.3.3,0,0,0,.17-.3.3.3,0,0,0,.45-.15.18.18,0,0,0,.18,0c.1.11-.32.59-.07.8,0,0-.06.17.18.21,0,0-.14.3.27.44.07.39.69.57.77,1a1.77,1.77,0,0,0-.46-.59c0-.07.57,1,.37,1.43,0,.64.41,1.65,1.08,1.81.09,0,3.29,0,3.21-.07.46.14.18-.57-.21-.8a1,1,0,0,0-.53-.41,1.41,1.41,0,0,0-.08-.91.26.26,0,0,0-.12-.35.46.46,0,0,0-.14-.46c0-.32-.38-.45-.69-.91,0,0,.17.2.26.22s-.11-.19-.32-.6c0,0,.05-.14-.1-.46,0-.31-.4-1.08-.2-1.7a.27.27,0,0,0,.18-.13.39.39,0,0,0,.53-.23s.43.06.48-.51a.41.41,0,0,0,.38.08s3,1.74,3.9,1.6a.57.57,0,0,0,.28.15s-.11.71,0,.9a.93.93,0,0,0-.19.7s-.24.43-.08.54c0,0-.53.78-.34,1.07,0,0-.32.32-.25,1.28a.62.62,0,0,0,.66.91c.59-.22,5.45.49,3.79-.68a.6.6,0,0,0-.44-.3s-.11-.26-.34-.25c0,0,0-.18-.17-.14a.29.29,0,0,0-.14-.3.28.28,0,0,0-.11-.3s0-.2-.1-.28.07-.25,0-.37c.34,0,.6-1.17,1.12-1.59,0,0,.34-.21.34-.43a.68.68,0,0,0,.38-.25s.84,0,.94-.13c0,0,.18.18.57-.05a9.57,9.57,0,0,0,1.6,2,.91.91,0,0,0,.3.45c0,.32.12.26.12.26a.49.49,0,0,0,.2.35c.43,1.55.75,2,1.9,1.86.7,0,1.41,0,1.89,0l.48,0c.54,0,.48-.1.48-.1.91.27.54-.3.19-.52a.38.38,0,0,0-.25-.26.49.49,0,0,0-.32-.26.34.34,0,0,0-.29-.13c0-.13-.31-.17-.31-.17-.22-.47-.5-.53-.5-.53-.35-.43-.4-.74-.71-.68-.22-.36-.4-1-.48-1.06a.29.29,0,0,0-.15-.26A4.16,4.16,0,0,0,45,41.19a3.07,3.07,0,0,1,.28.31,3.47,3.47,0,0,0,.82-.17,1.77,1.77,0,0,0,1.08,0,.32.32,0,0,0,.41,0,.54.54,0,0,0,.62-.06c.24.16.47-.11.47-.11a.29.29,0,0,0,.43-.12.38.38,0,0,0,.58-.17.64.64,0,0,0,.85-.19,1,1,0,0,0,.81.17,2,2,0,0,0,1,.29c.85.6,2.08.53,2.65,1.54,0,.17.16.38.36.36-.09.35.39.35.39.35.57.63,2.59,1.08,2.72.06a1.31,1.31,0,0,1-.66-.4c.22-.27-.09-.94-.09-.94a5.91,5.91,0,0,1,1.41.78.44.44,0,0,0,.08-.1c-.06.31-.1.88-.1.88,2.5-1.5,1.21-3.45,1.21-3.45a1.4,1.4,0,0,0,.11-.65c1.06-.38,2.85-1.17,1.7-1.24a18.18,18.18,0,0,1-3-.52c-.4-.48-1.38-.47-1.79-1.07a.27.27,0,0,0-.23-.22,1.59,1.59,0,0,0-.13-.61,1,1,0,0,0-.21-.06c2.49.1,7.27,2.15,7.69,2,.5,0,.2-.4.06-.4-2.84-1.48-6.92-3.63-8.36-3.71a9.26,9.26,0,0,1,1.78.46c2-.3,8,2,7,.9"/></svg>