<svg id="Capa_1" data-name="Capa 1" xmlns="http://www.w3.org/2000/svg" viewBox="0 0 68.73 72.72"><defs><style>.cls-1{fill:#212121;fill-rule:evenodd;}.cls-2{fill:#606060;}</style></defs><title>icono_ubicacion</title><path class="cls-1" d="M56.55,34.61a24.05,24.05,0,1,0-48.1,0c0,13.29,24.06,34.42,24.06,34.42S56.56,47.89,56.55,34.61Z"/><path class="cls-2" d="M60.86,11.5a.65.65,0,0,1-.47-.67c0-.2,0-.56,0-.56A1.17,1.17,0,0,0,60,9.38a.54.54,0,0,0-.3-.16c-.37-.09-.85.33-.85.33a1.38,1.38,0,0,0-.86.39.84.84,0,0,1,.35-.3s-.74.15-1,.47a1,1,0,0,1,.36-.31,2.59,2.59,0,0,0-.63.17,1.53,1.53,0,0,0-1.14.79,1.19,1.19,0,0,1,.45-.59,1.35,1.35,0,0,0-1.12,1.1,1.58,1.58,0,0,1,.33-.8s-.78.24-1,.69a1.21,1.21,0,0,1,.25-.37,5.4,5.4,0,0,0-2,1.48c-.15.19-.35.35-.5.53a6.07,6.07,0,0,0-.91,1.28,26.7,26.7,0,0,0-1.16,2.48c-.09.23-.18.45-.25.68a41.58,41.58,0,0,1-2,4.86.82.82,0,0,0-.2.47,1.35,1.35,0,0,0-.3.59,2.45,2.45,0,0,0-.55,1.06s-.21.1-.17.29a.33.33,0,0,0-.2.29.28.28,0,0,0-.22.3s-.23.06-.23.26c0,0-.3.16-.28.39a.83.83,0,0,0-.35.54.77.77,0,0,0-.37.53.57.57,0,0,0-.36.4.43.43,0,0,0-.27.32.35.35,0,0,0-.28.27.34.34,0,0,0-.26.33s-.35.1-.35.37c0,0-.27.08-.25.31,0,0-.22,0-.26.32,0,0-.36.05-.4.32,0,0-.49.17-.53.47,0,0-.37.12-.42.41,0,0-.46.13-.41.4a.25.25,0,0,0-.28.26.76.76,0,0,0-.78.65.82.82,0,0,0-.83.42.58.58,0,0,0-.7.23,1.34,1.34,0,0,0-1,.17,1.65,1.65,0,0,0-1.15.2,2,2,0,0,0-1.74.59,1.34,1.34,0,0,1,.8-.61,2.92,2.92,0,0,0-1.82.72,1.63,1.63,0,0,0-1.36.63,1,1,0,0,0-.8.32,7.62,7.62,0,0,0-1.62.79,5.65,5.65,0,0,0-1.41.58,22.94,22.94,0,0,0-2.43,1,8.41,8.41,0,0,0-2.35,1.14,3.46,3.46,0,0,0-1.17.57.94.94,0,0,0-.76.21.31.31,0,0,0-.37.17.57.57,0,0,0-.72.09c-.29-.2-.62.21-.62.21-.38-.19-.73.23-.73.23-.42-.16-.54.12-.54.12a.62.62,0,0,0-.71.24.81.81,0,0,0-.87.33.47.47,0,0,0-.65.27c-.5-.12-.87.53-.87.53-.39-.08-.6.34-.6.34a.57.57,0,0,0-.62.35c-.39,0-.46.23-.46.23a.46.46,0,0,0-.52.23c-.22,0-.43.25-.43.25a.39.39,0,0,0-.39.18c-.24,0-.32.24-.32.24a.34.34,0,0,0-.37.2.39.39,0,0,0-.45.06c-.23-.14-.44.11-.44.11-.28-.15-.58.12-.58.12a.34.34,0,0,0-.4.06.33.33,0,0,0-.42,0,.33.33,0,0,0-.4,0c-.11-.2-.4-.08-.4-.08-.43,0-1.63-1.26-1.63-1.26a3.47,3.47,0,0,0-2.88-1.08c-1.27.25-1,.57-1,.57.12.35,1.43.51,1.43.51a2.76,2.76,0,0,1,2.07,1.76A3.33,3.33,0,0,0,5.38,42,3.81,3.81,0,0,1,7,43.86,3.44,3.44,0,0,0,8.8,45.79c.39.46,1.49.55,1.58.58a8.67,8.67,0,0,0,2.69.16,4.79,4.79,0,0,0,1.95,0c.06.15.4.1.4.1.65,0,1.77.21,1.77.21-.17-.14-.16-.6-.16-.6.13.87,1.11.8,1.11.8.2.36,1.2.45,1.2.45.53-.32.23-2,.23-2a3.72,3.72,0,0,1,.07,1.86c.14.58,1.23.54,1.23.54a8.17,8.17,0,0,1,.21,1.38s0,.83.5,1a.65.65,0,0,1-.55-.45,2.85,2.85,0,0,1-.5.68s-.37.26-.29.5a.57.57,0,0,0-.24.54s-.38.44-.26.73a2.23,2.23,0,0,0-.17,1.05.5.5,0,0,0-.1.47s-.25.59-.45,1c0,0-.5.58-.34,1A7.22,7.22,0,0,1,18.8,57s-.34.72,0,1a2.39,2.39,0,0,0,.13.21,1.8,1.8,0,0,0,.94.69,1,1,0,0,0,.75,0,.38.38,0,0,0,0-.55.54.54,0,0,1,.12.6s1.39.2,1.49-.07a.56.56,0,0,0-.17-.4,4.17,4.17,0,0,1-.6-1.19A4.1,4.1,0,0,0,22.6,58.9s.49.05.61-.12c0,0,.15-.05,0-.28,0,0,.29.14.15.33,0,0,.63.08.43-.27a2.87,2.87,0,0,0-1.21-1,2,2,0,0,0-.55-.12,1.29,1.29,0,0,1,.47,0,1.1,1.1,0,0,0-.63-.79.81.81,0,0,1,.32.13.58.58,0,0,0-.1-.42.83.83,0,0,0,.21-.75A3.28,3.28,0,0,1,23.34,54s-.13.48.16.58c0,0-.28.12-.16.29a.36.36,0,0,0,.16.47.4.4,0,0,0,.19.49s-.27.43-.06.64c0,0-.39.77,0,1a.63.63,0,0,0,.58.07s.07.2.73.2h.65a4.14,4.14,0,0,0,1.1-.1,1.69,1.69,0,0,0,.86-.09,1.64,1.64,0,0,0,.65,0c.05,0,.42.11.49-.08,0,0,.05-.22-.31-.38a1.41,1.41,0,0,1,.32.18s-.07-.47-.46-.56c0,0,0-.3-.42-.45a3.07,3.07,0,0,0-.64-.26.24.24,0,0,0-.22-.22s0-.25-.26-.28c0,0,.14-.21,0-.34a.57.57,0,0,0-.13-.63.4.4,0,0,0,0-.46,3.72,3.72,0,0,1,.49-1.77,4.3,4.3,0,0,0,.73-2,5.14,5.14,0,0,1-1-.09,6.57,6.57,0,0,0,1.07-.09s1.42-.13,1.7-.43A3.57,3.57,0,0,0,31.75,49a1.17,1.17,0,0,0,.69-.3,1.26,1.26,0,0,1-.36.39.66.66,0,0,0,.31.64.8.8,0,0,0,.24.87.26.26,0,0,0,.18.3A6,6,0,0,0,34,53.79a2,2,0,0,0,.31,1.36s-.15.74.15,1a.85.85,0,0,0,.31,1.1,1.13,1.13,0,0,0,.71.18,3,3,0,0,0,.61,0s.59,0,1.31,0c0,0,1,.05,1-.28a.39.39,0,0,0,0-.28.43.43,0,0,1,.12.29.17.17,0,0,1,.2.06s.16.19.27.14.24,0,.12-.37a.71.71,0,0,0-.84-.55.61.61,0,0,0-.59-.27,7,7,0,0,0-.46-1.07,1.31,1.31,0,0,0-.07-1,.93.93,0,0,0-.15-.83.48.48,0,0,0-.28-.49c.16-.32,0-.48,0-.48a3.75,3.75,0,0,0-.27-.58,5,5,0,0,0-.2-1,7.83,7.83,0,0,0-.45-.92,2,2,0,0,1-.15-1.65,2.17,2.17,0,0,0,.1,1.22,12.35,12.35,0,0,0,1.15-2.37A4.71,4.71,0,0,0,37,46a6.16,6.16,0,0,1,.11-1.48A7.66,7.66,0,0,1,38,42a6.69,6.69,0,0,0-.56,1.65,7.72,7.72,0,0,0-.28,1.72c0,.27,0,.53,0,.8a10.8,10.8,0,0,0-.08,1.88,3.09,3.09,0,0,0,.22.69c-.25.08-.14.41-.14.41-.17.14,0,.38,0,.38a.32.32,0,0,0,.05.48.2.2,0,0,0,0,.32c-.13.12,0,.41,0,.41a2.73,2.73,0,0,0,1,1.81,8.19,8.19,0,0,0,1.51,2,3.92,3.92,0,0,0,.42,1.16,1.86,1.86,0,0,0,.16.93,1.51,1.51,0,0,0-.16.77c-.34.87.75,1.07.75,1.07a.64.64,0,0,1-.3-.44c.15.4.68.4.68.4a3.38,3.38,0,0,0,1.73.18c.64.14.88-.12.88-.12.37-.12.08-.54.08-.54a6.75,6.75,0,0,1-.76-2.23v-.05a1.57,1.57,0,0,0-.22-.76c.19-.61-.07-.71-.07-.71.1-.65-.25-.82-.25-.82a2.31,2.31,0,0,1-.42-.63,11.85,11.85,0,0,0-.94-2.09,2.23,2.23,0,0,0-1.66-1.35,2.14,2.14,0,0,1,.91.3,6.84,6.84,0,0,0,.5-3.4,3,3,0,0,1,.37-1.94,4.8,4.8,0,0,0-.35,1.3,7.49,7.49,0,0,1,1.21-2A6.09,6.09,0,0,0,43,39.32a5.29,5.29,0,0,1,.17,2.26,8.07,8.07,0,0,0,1.07-1.35,3.54,3.54,0,0,0,1.07-1.35,1.46,1.46,0,0,0,.92-1.23,1,1,0,0,0,.48-.87s.41-.1.26-1a.61.61,0,0,1,.18.47,1.35,1.35,0,0,0,.3-1.28,2.74,2.74,0,0,1,.14.42,8.74,8.74,0,0,0,.8-1.83c.9-1.61,3.29-8,3.29-8a17,17,0,0,0,.92-3.13c.08-.38.26-.76.38-1.14.4-1.23.55-2.51.91-3.75a7,7,0,0,1,.43-1.16,3.65,3.65,0,0,1,.32-.54l.29-.37.13-.17s.08-.13.12-.14a1.77,1.77,0,0,1-.44.1,2.54,2.54,0,0,0,1-.61.77.77,0,0,1-.47,0,1.54,1.54,0,0,0,1-.44,4.49,4.49,0,0,0,.73-.41h0l.12,0a.33.33,0,0,1-.24-.29.35.35,0,0,0,.35.26.53.53,0,0,0,.19,0,.77.77,0,0,1-.29-.36.66.66,0,0,0,.65.34s-.1,0-.13-.17.1.22.49.12A.38.38,0,0,1,58,13.3a.46.46,0,0,0,.58.27.6.6,0,0,1-.24-.33.56.56,0,0,0,.32.3.39.39,0,0,0,.34-.09,2.1,2.1,0,0,0-.46-.31,1.85,1.85,0,0,1,.75.54s.49.54.79.39a.92.92,0,0,0,.43-.39s.17,0,.14-.15a.2.2,0,0,0,0-.12.17.17,0,0,0,0-.15s0,0-.07.05,0-.2-.09-.14,0-.21-.07-.14,0-.2-.07-.14,0-.22-.09-.13,0-.15-.07-.08h0a0,0,0,0,1,0,0h.27s0,.08,0,.07,0,0,.06,0h0c0,.06,0,.21.11,0h0c0,.05,0,.2.13,0,0,0,0,.24.12,0,0,0,0,.22.13,0,0,0,0,.22.12,0a.2.2,0,0,0,.09-.05.15.15,0,0,0,.11-.11,1.26,1.26,0,0,0,.11-.48C61.41,11.59,60.86,11.5,60.86,11.5Z"/></svg>