<svg id="Capa_1" data-name="Capa 1" xmlns="http://www.w3.org/2000/svg" viewBox="0 0 68.73 72.72"><defs><style>.cls-1{fill:#212121;fill-rule:evenodd;}.cls-2{fill:#606060;}</style></defs><title>icono_ubicacion </title><path class="cls-1" d="M57.52,34.19c-6.28-49.8-86.9-15.1-24.27,34.57,0,0,24.26-21.23,24.27-34.57"/><path class="cls-2" d="M64.61,23a.57.57,0,0,0-.47-.21c-.22,0-.49-.22-.65-.08a2,2,0,0,1-1.63.42l-.16,0c-.44-.05-.57.17-.57.17s-.29,0-.34,0a3.73,3.73,0,0,0-.82,0,4.08,4.08,0,0,1-.69.09s-.12,0-.13,0,.31,0,.34,0a4.38,4.38,0,0,1,.82-.13l.7,0h.12a2,2,0,0,1-.59-.14,1.08,1.08,0,0,0-1,0c-.11.07-.19.17-.3.24a.39.39,0,0,1-.39,0,.59.59,0,0,0-.89.11s-.5.33-.76.26a.46.46,0,0,0-.41.06s-.29-.05-.44-.5a.58.58,0,0,0,.15.45,1.91,1.91,0,0,1-.58-.62.84.84,0,0,0,.12.39,5.23,5.23,0,0,1-.91-.61s.14.36.29.43a3.66,3.66,0,0,0-1.11-.3l.36.22a1.88,1.88,0,0,0-1.15.16,1.26,1.26,0,0,1,.4,0,3.36,3.36,0,0,0-1.11.52,1.06,1.06,0,0,1,.35-.1A5.3,5.3,0,0,0,51.91,25c-.26.35-.43.76-.7,1.11a4.08,4.08,0,0,1-1,.91,3,3,0,0,1-.79.36,1.18,1.18,0,0,0-1-.25.73.73,0,0,0-.84-.35,1.11,1.11,0,0,0-.85-.66c-.08-.53-.91-.74-.91-.74-.1-.66-1.08-.92-1.08-.92-.24-.62-1.16-.84-1.16-.84-.16-.48-.84-.61-.84-.61a1.41,1.41,0,0,0-1.24-.64,2,2,0,0,0-1.6-.46A2,2,0,0,0,38,21.75c-.6-.55-1.77-.14-1.77-.14a1.43,1.43,0,0,0-1.52.54,1.14,1.14,0,0,0-1.08.49,1.19,1.19,0,0,0-1.21.89A2.21,2.21,0,0,0,30.85,25c-.57.12-.69,1.05-.69,1.05-.75.33-.62,1.58-.62,1.58-.62.34-.43,1.34-.43,1.34-.6.33-.51,1.54-.51,1.54-.46.36-.4,1.3-.4,1.3-.28.12-.3.61-.3.61-.35.13-.37.73-.37.73-.28.12-.55.83-.55.83a5.51,5.51,0,0,1-1.19,1.22,9.59,9.59,0,0,1-1.21.78,13.38,13.38,0,0,1-3.42,1.26c-.47.11-.95.2-1.42.29a45.16,45.16,0,0,0-4.88,1.07,16.23,16.23,0,0,0-2.61,1A11.41,11.41,0,0,0,9.8,41.25c-.75.67-1.43,1.42-2.17,2.09-1,.93-2.28,1.78-3.73,1.33A5,5,0,0,1,1,41c.35,1.7,1.09,3.35,2.79,4.08a3.72,3.72,0,0,0,1.8.29c2.26-.21,3.92-2,5.88-2.88a15,15,0,0,1,4.32-1.25,12.26,12.26,0,0,1,2.77-.19c7.11.78,11.08-.86,11.08-.86a1.86,1.86,0,0,0,1.17-.92,1,1,0,0,1-.51.69,2.45,2.45,0,0,0,1.94-2.13,2.27,2.27,0,0,1-1,1.88,2.81,2.81,0,0,0,3.39.71,2.54,2.54,0,0,1-2.5.12,9.41,9.41,0,0,0,.28,2.18,2.29,2.29,0,0,0-.63.72,3.63,3.63,0,0,0-.42,1.43,5.22,5.22,0,0,1-.15,1.31c0,.16-.14.3-.19.46s-.09.35-.15.53l-.12.31a2.42,2.42,0,0,0,.14-.61,2.45,2.45,0,0,1-.34.55,1,1,0,0,0,0,1.1l.27.51c.17.74-.05.89-.05.89a.86.86,0,0,0,.21,1,.47.47,0,0,1,0-.26.4.4,0,0,1,.24-.29,1.55,1.55,0,0,0,.33.71c.06.06.12.09.19.15s.14.24.21.38a.63.63,0,0,0,.31.29,1.69,1.69,0,0,1,.24.08,1.25,1.25,0,0,0,1.09.1,1.08,1.08,0,0,0,.87-.07,1,1,0,0,1,.5,0,.57.57,0,0,0-.17-.23.57.57,0,0,0,.26,0c.31,0,.36.08.36.08a1.43,1.43,0,0,0-.54-.53,1,1,0,0,1,.55.11.6.6,0,0,0-.42-.32.87.87,0,0,0-.55-.1.91.91,0,0,0-.69-.07c-.14-.06-.46.11-.46.11-.15,0-.42-.36-.42-.36a3.39,3.39,0,0,0-.54-1.51,2.07,2.07,0,0,1,.17-1.9,2.91,2.91,0,0,0-.4.36,3.44,3.44,0,0,1,.51-.7,6.7,6.7,0,0,0,2-2.58,5.62,5.62,0,0,1,.72-1.23,3.42,3.42,0,0,0,1-2.08l-.16,0a6.77,6.77,0,0,1-4.14-4.65C33.54,40.89,37,40.92,37,40.92a2.3,2.3,0,0,0-.67,1.17,4.11,4.11,0,0,0,.07,2.2c.2.84.53,2.88.53,2.88a4.8,4.8,0,0,1,0,1.13s.14,1.15.92,1.32a1.69,1.69,0,0,1,.71.54,3.57,3.57,0,0,1,.77.85l0,.07c.09.33.31,1,1,.85a2.75,2.75,0,0,0,.83.52s.23.47.6.33a1.42,1.42,0,0,0,1,.44,4,4,0,0,0-.26-.75s.15-.24-.16-.5a1.06,1.06,0,0,1,.73.15s.49.42.77,0c0,0,.67-.41,1.1,0,0,0-.17-.55-1.24-.62,0,0,0-.23-.53-.15l-.38-.07a1.3,1.3,0,0,1,1-.21,1.47,1.47,0,0,0-1.15-.4s-.76.15-1.1-.14c0,0,0-.34-.55-.39a9.58,9.58,0,0,1-1.7-1.85s-.13-.62-.47-.72a21,21,0,0,1,.7-2.61,6.47,6.47,0,0,0,.88-3.57,1,1,0,0,0,.07-.94s.77-2.3-2.74-7.2a15.41,15.41,0,0,1,1.44,2.08,2.3,2.3,0,0,1-.22-1,4.85,4.85,0,0,1,.19-1.28,10.53,10.53,0,0,0-.1,1.28,2.93,2.93,0,0,0,.29,1.23h0a8.78,8.78,0,0,1,1.35,4.7,1.36,1.36,0,0,0,.5-.63,5,5,0,0,0,.23-.54,2.23,2.23,0,0,1,.7-.34,2.34,2.34,0,0,0,.81-.2,2.82,2.82,0,0,0,1.09-.21,2.19,2.19,0,0,0,1.12-.54s.28.91,1.79,1a4.19,4.19,0,0,0,1.54,1.6A2.22,2.22,0,0,1,49,41s.35.61.56.66a1.46,1.46,0,0,0,.25.53s.45.89.71,1a.81.81,0,0,0,.56.2,4.32,4.32,0,0,1-.38-.47s0-.1-.16-.28l-.4-.7a1.45,1.45,0,0,1-.06-.38,1.44,1.44,0,0,0,.68.62s.69.64.93.59a1.48,1.48,0,0,0,.67.13l-.49-.39a.87.87,0,0,0-.36-.3A2.9,2.9,0,0,1,50.55,41a3.36,3.36,0,0,0,.65.33s.28.29.51.18a4.75,4.75,0,0,0,1.35.12,9.14,9.14,0,0,0-1.44-.75c-.06-.09-.28-.1-.28-.1A9.47,9.47,0,0,1,49.8,40a3.78,3.78,0,0,1-1.1-1.27,1.19,1.19,0,0,0,.82.44h0a5,5,0,0,1,1,.39c.2.2.34.11.34.11a.65.65,0,0,1,.31.26.67.67,0,0,0-.21-.48c0-.07-.22-.13-.22-.13-.56-.23-.63-.53-.63-.53a1.07,1.07,0,0,1,.79.29.55.55,0,0,0,.39.09,2.83,2.83,0,0,1,.59.41,1.18,1.18,0,0,0-.52-.69c0-.14-.43-.23-.43-.23a2.22,2.22,0,0,1-.59-.31.14.14,0,0,1,0-.21,2.05,2.05,0,0,1,.82-.09.58.58,0,0,0,.54-.08,1.71,1.71,0,0,1,.88,0,1.56,1.56,0,0,0-1.38-.42c-.12-.13-.71,0-.71,0a13.34,13.34,0,0,1-1.34.2,3,3,0,0,1-1-.12.3.3,0,0,0-.17-.21,2.79,2.79,0,0,1,.35-.43,2.15,2.15,0,0,0,1-1,2.1,2.1,0,0,1-.66.51,2.94,2.94,0,0,0,1.3-2.36l.38-.43A6.56,6.56,0,0,0,52.5,30.6a7.25,7.25,0,0,1,.36-1.21,6.48,6.48,0,0,0-.18.82,4.92,4.92,0,0,1,.58-1.2s.86-1.17,1.75-1.22l-.28.12S55,28,55,28c.26.08.51.15.78.21a3.81,3.81,0,0,0,2.63-.31,7.71,7.71,0,0,1,1-.45,6.51,6.51,0,0,1,.9-.17,4.53,4.53,0,0,0,2-.74,2.43,2.43,0,0,1,.65-.19,6.66,6.66,0,0,1,1.18,0,3.53,3.53,0,0,0,.46,0,.35.35,0,0,0,.28-.23,3,3,0,0,1,.11-.43.25.25,0,0,0-.06-.27.89.89,0,0,0-.08-.49.64.64,0,0,1-.07.26.76.76,0,0,0-.16-.44.59.59,0,0,1-.09.36.8.8,0,0,0-.22-.45,1.43,1.43,0,0,1,0,.51.67.67,0,0,0-.11-.24.67.67,0,0,1,0,.39.51.51,0,0,0-.08-.24.87.87,0,0,1-.12.33A1.23,1.23,0,0,0,64,25a1,1,0,0,1-.19.49.6.6,0,0,0,0-.4.83.83,0,0,1-.27.41.75.75,0,0,0,0-.35.66.66,0,0,1-.28.36.58.58,0,0,0,0-.28.86.86,0,0,1-.24.31.62.62,0,0,0,0-.26.74.74,0,0,1-.21.33,1.07,1.07,0,0,0-.05-.35,1.1,1.1,0,0,1-.15.35.44.44,0,0,0,0-.26.79.79,0,0,1-.15.29.51.51,0,0,0,0-.33.78.78,0,0,1-.13.29.84.84,0,0,0,0-.37.47.47,0,0,1-.14.23,1.21,1.21,0,0,0-.75-.12,2.7,2.7,0,0,0-.68.22,1.18,1.18,0,0,1-.3.1.7.7,0,0,0,.47.21c-.91,0-.76-.9-.76-.9l0-.07a1.36,1.36,0,0,1,.06.24,1.11,1.11,0,0,0,.08-.37h0a.68.68,0,0,1,.08.29.88.88,0,0,0,.08-.3h0a.89.89,0,0,1,.05.24,1.43,1.43,0,0,0,.08-.24h0a1.73,1.73,0,0,1,0,.2,1.57,1.57,0,0,0,.07-.2h0a.77.77,0,0,1,0,.2.73.73,0,0,0,.07-.2h0a.78.78,0,0,1,0,.19.86.86,0,0,0,.07-.23h0a.8.8,0,0,1,.05.22,1.15,1.15,0,0,0,.08-.23h0a1.2,1.2,0,0,1,.06.23,1.67,1.67,0,0,0,.08-.26v0a.77.77,0,0,1,.07.26,1,1,0,0,0,.08-.26h0a.8.8,0,0,1,0,.22,1,1,0,0,0,.07-.24h0a1.09,1.09,0,0,1,.07.27,1,1,0,0,0,.08-.31h0a.77.77,0,0,1,.07.26,1.19,1.19,0,0,0,.09-.31h0a.82.82,0,0,1,.06.26,1.34,1.34,0,0,0,.09-.32h0a.82.82,0,0,1,.06.26,1.18,1.18,0,0,0,.09-.32.82.82,0,0,1,.06.26.85.85,0,0,0,.09-.35h0a.6.6,0,0,1,.07.27,1,1,0,0,0,.09-.33,1.09,1.09,0,0,1,.07.27.91.91,0,0,0,.08-.38h0a.82.82,0,0,1,.12.25,1.1,1.1,0,0,0,0-.36.76.76,0,0,1,.29.2,1.06,1.06,0,0,0-.18-.38.74.74,0,0,1,.23.21.91.91,0,0,0-.09-.32,4.46,4.46,0,0,0-.54.4h0l-.14.1,0,0h0l-.14.09h0l-.14.06h0l.13-.07,0,0,.13-.09,0,0h0l.07-.06a3,3,0,0,1,.75-.55,2.18,2.18,0,0,1,1.42-.12s.09,0,.15-.09S64.61,23,64.61,23Z"/></svg>