<svg id="Capa_1" data-name="Capa 1" xmlns="http://www.w3.org/2000/svg" viewBox="0 0 68.73 72.72"><defs><style>.cls-1{fill:#212121;}</style></defs><title>icono_alimentacion_spi</title><path class="cls-1" d="M16.15,36c-1.46-3.25-4.84-9.48-8.65-10.37V47.05c3.81-.89,7.31-7.13,8.71-10.37A1.17,1.17,0,0,1,16.15,36Z"/><path class="cls-1" d="M45.93,36.36c0-4.33,2.23-8,5.35-9.29a23.34,23.34,0,0,0-11-3.18c-10.69,0-20.05,9.86-22,12.47,1.91,2.61,11.27,12.47,22,12.47a22.84,22.84,0,0,0,10.94-3.18C48.16,44.31,45.93,40.68,45.93,36.36Z"/><path class="cls-1" d="M60.4,34.34l0,0a42.23,42.23,0,0,0-6.87-5.79c-3.19.13-5.67,3.56-5.67,7.83s2.48,7.7,5.67,7.82a42.23,42.23,0,0,0,6.87-5.79A2.87,2.87,0,0,0,60.4,34.34Zm-3.59.81a3.05,3.05,0,1,1-3.05-3.06,3,3,0,0,1,3.05,3.06Z"/><circle class="cls-1" cx="53.76" cy="35.15" r="3.31"/></svg>